<?xml version="1.0" encoding="UTF-8" standalone="no"?>
<!DOCTYPE svg PUBLIC "-//W3C//DTD SVG 1.1//EN"
 "http://www.w3.org/Graphics/SVG/1.1/DTD/svg11.dtd">
<!-- Generated by graphviz version 2.40.1 (20161225.0304)
 -->
<!-- Title: %3 Pages: 1 -->
<svg width="280pt" height="444pt"
 viewBox="0.00 0.00 280.00 443.82" xmlns="http://www.w3.org/2000/svg" xmlns:xlink="http://www.w3.org/1999/xlink">
<g id="graph0" class="graph" transform="scale(1 1) rotate(0) translate(4 439.8234)">
<title>%3</title>
<polygon fill="#ffffff" stroke="transparent" points="-4,4 -4,-439.8234 276,-439.8234 276,4 -4,4"/>
<g id="clust1" class="cluster">
<title>cluster_system</title>
<polygon fill="none" stroke="#000000" points="8,-8 8,-359.8234 264,-359.8234 264,-8 8,-8"/>
<text text-anchor="middle" x="136" y="-344.6234" font-family="Times,serif" font-size="14.00" fill="#000000">Web App</text>
</g>
<!-- browser -->
<g id="node1" class="node">
<title>browser</title>
<ellipse fill="none" stroke="#000000" cx="173" cy="-304.3675" rx="54.9811" ry="25.4118"/>
<text text-anchor="middle" x="173" y="-307.1675" font-family="Times,serif" font-size="14.00" fill="#000000">browser</text>
<text text-anchor="middle" x="173" y="-293.1675" font-family="Times,serif" font-size="14.00" fill="#000000">(front&#45;end)</text>
</g>
<!-- server -->
<g id="node3" class="node">
<title>server</title>
<ellipse fill="none" stroke="#000000" cx="202" cy="-165.4558" rx="54.3689" ry="25.4118"/>
<text text-anchor="middle" x="202" y="-168.2558" font-family="Times,serif" font-size="14.00" fill="#000000">server</text>
<text text-anchor="middle" x="202" y="-154.2558" font-family="Times,serif" font-size="14.00" fill="#000000">(back&#45;end)</text>
</g>
<!-- browser&#45;&gt;server -->
<g id="edge1" class="edge">
<title>browser&#45;&gt;server</title>
<path fill="none" stroke="#000000" stroke-dasharray="5,2" d="M181.124,-268.8974C183.0935,-260.09 185.1605,-250.6657 187,-241.9117 189.8095,-228.5418 192.7369,-213.8209 195.252,-200.896"/>
<polygon fill="#000000" stroke="#000000" points="177.6594,-268.3512 178.8763,-278.8759 184.4883,-269.8895 177.6594,-268.3512"/>
<polygon fill="#000000" stroke="#000000" points="198.708,-201.4584 197.1704,-190.9757 191.8353,-200.1293 198.708,-201.4584"/>
<text text-anchor="middle" x="206.5" y="-230.7117" font-family="Times,serif" font-size="14.00" fill="#000000">HTTP</text>
</g>
<!-- webpage -->
<g id="node5" class="node">
<title>webpage</title>
<polygon fill="none" stroke="#000000" points="129.8565,-183.4558 16.1435,-183.4558 16.1435,-147.4558 129.8565,-147.4558 129.8565,-183.4558"/>
<text text-anchor="middle" x="73" y="-161.2558" font-family="Times,serif" font-size="14.00" fill="#000000">HTML document</text>
</g>
<!-- browser&#45;&gt;webpage -->
<g id="edge2" class="edge">
<title>browser&#45;&gt;webpage</title>
<path fill="none" stroke="#000000" d="M155.5813,-280.171C137.8613,-255.5558 110.4712,-217.5077 92.1508,-192.0586"/>
<polygon fill="#000000" stroke="#000000" points="94.7627,-189.696 86.0797,-183.625 89.0816,-193.7857 94.7627,-189.696"/>
<text text-anchor="middle" x="150.9448" y="-230.7117" font-family="Times,serif" font-size="14.00" fill="#000000">displays</text>
</g>
<!-- html -->
<g id="node2" class="node">
<title>html</title>
<text text-anchor="middle" x="44" y="-300.1675" font-family="Times,serif" font-size="14.00" fill="#000000">HTML</text>
</g>
<!-- html&#45;&gt;webpage -->
<g id="edge4" class="edge">
<title>html&#45;&gt;webpage</title>
<path fill="none" stroke="#000000" d="M43.9097,-286.2404C44.1715,-270.6165 45.373,-247.544 49.6758,-227.9117 52.2559,-216.1392 56.5959,-203.6109 60.8372,-192.8892"/>
<polygon fill="#000000" stroke="#000000" points="64.081,-194.2037 64.6512,-183.6242 57.608,-191.539 64.081,-194.2037"/>
<text text-anchor="middle" x="82.6621" y="-230.7117" font-family="Times,serif" font-size="14.00" fill="#000000">implements</text>
</g>
<!-- url -->
<g id="node4" class="node">
<title>url</title>
<text text-anchor="middle" x="73" y="-29.8" font-family="Times,serif" font-size="14.00" fill="#000000">URL</text>
</g>
<!-- webpage&#45;&gt;url -->
<g id="edge3" class="edge">
<title>webpage&#45;&gt;url</title>
<path fill="none" stroke="#000000" d="M73,-147.4531C73,-125.5493 73,-88.3034 73,-62.4914"/>
<polygon fill="#000000" stroke="#000000" points="76.5001,-62.2071 73,-52.2072 69.5001,-62.2072 76.5001,-62.2071"/>
<text text-anchor="middle" x="96.3276" y="-91.8" font-family="Times,serif" font-size="14.00" fill="#000000">contains</text>
</g>
<!-- user -->
<g id="node6" class="node">
<title>user</title>
<ellipse fill="none" stroke="#000000" cx="173" cy="-417.8234" rx="27" ry="18"/>
<text text-anchor="middle" x="173" y="-413.6234" font-family="Times,serif" font-size="14.00" fill="#000000">user</text>
</g>
<!-- user&#45;&gt;browser -->
<g id="edge5" class="edge">
<title>user&#45;&gt;browser</title>
<path fill="none" stroke="#000000" d="M173,-399.5947C173,-383.6657 173,-360.0687 173,-340.35"/>
<polygon fill="#000000" stroke="#000000" points="176.5001,-340.1612 173,-330.1612 169.5001,-340.1612 176.5001,-340.1612"/>
<text text-anchor="middle" x="185.0552" y="-370.6234" font-family="Times,serif" font-size="14.00" fill="#000000">uses</text>
</g>
</g>
</svg>
